<?xml version="1.0" encoding="utf-8"?>
<!-- Generator: Adobe Illustrator 24.2.1, SVG Export Plug-In . SVG Version: 6.00 Build 0)  -->
<svg version="1.1" id="Layer_1" xmlns="http://www.w3.org/2000/svg" xmlns:xlink="http://www.w3.org/1999/xlink" x="0px" y="0px"
	 viewBox="0 0 371.7 46.4" style="enable-background:new 0 0 371.7 46.4;" xml:space="preserve">
<style type="text/css">
	.st0{fill:#E30058;}
	.st1{fill:#FD415C;}
	.st2{fill:#FD7C48;}
	.st3{fill:#DFE9EE;}
	.st4{fill:#FDF3F3;}
	.st5{fill:url(#SVGID_1_);}
	.st6{fill:url(#SVGID_2_);}
	.st7{fill:url(#SVGID_3_);}
	.st8{fill:url(#SVGID_4_);}
	.st9{fill:url(#SVGID_5_);}
	.st10{fill:url(#SVGID_6_);}
	.st11{fill:url(#SVGID_7_);}
	.st12{fill:url(#SVGID_8_);}
</style>
<path class="st0" d="M232,0l-3.8,19.2l3.8,27.2l13.6-13.6c7.5-7.5,7.5-19.7,0-27.2C242,2,237.1,0,232,0z"/>
<path class="st1" d="M212.7,19.2c0,5.1,2,10,5.6,13.6L232,46.4V0C221.4,0,212.8,8.6,212.7,19.2L212.7,19.2z"/>
<path class="st1" d="M232,5.7l-3.8,13.5l3.8,13.5c7.5,0.4,13.8-5.3,14.2-12.8s-5.3-13.8-12.8-14.2C233,5.7,232.5,5.7,232,5.7
	L232,5.7z"/>
<path class="st2" d="M218.4,19.2c0,7.5,6.1,13.5,13.5,13.5c0,0,0,0,0,0v-27C224.5,5.7,218.5,11.8,218.4,19.2z"/>
<path class="st3" d="M239.8,19.2c0-4.3-3.5-7.8-7.8-7.8l-3.8,7.8L232,27C236.3,27,239.7,23.5,239.8,19.2z"/>
<path class="st4" d="M224.2,19.2c0,4.3,3.5,7.8,7.8,7.8c0,0,0,0,0,0V11.4C227.7,11.4,224.2,14.9,224.2,19.2
	C224.2,19.2,224.2,19.2,224.2,19.2z"/>
<linearGradient id="SVGID_1_" gradientUnits="userSpaceOnUse" x1="3.302696e-03" y1="-7.75" x2="40.92" y2="-7.75" gradientTransform="matrix(1 0 0 -1 0 12.91)">
	<stop  offset="0" style="stop-color:#009DFF"/>
	<stop  offset="0.39" style="stop-color:#008BEA"/>
	<stop  offset="0.88" style="stop-color:#0070CB"/>
	<stop  offset="1" style="stop-color:#0067C2"/>
</linearGradient>
<path class="st5" d="M0.1,36.9l1.4-6.8l19.7-18.2H4.5L10.3,0h30.6l-2.2,11.1l-21,19.7h19.5l-5.1,10.4H3.7C1,41.3-0.4,39.7,0.1,36.9z
	"/>
<linearGradient id="SVGID_2_" gradientUnits="userSpaceOnUse" x1="40.18" y1="-7.75" x2="63.55" y2="-7.75" gradientTransform="matrix(1 0 0 -1 0 12.91)">
	<stop  offset="0" style="stop-color:#009DFF"/>
	<stop  offset="0.39" style="stop-color:#008BEA"/>
	<stop  offset="0.88" style="stop-color:#0070CB"/>
	<stop  offset="1" style="stop-color:#0067C2"/>
</linearGradient>
<path class="st6" d="M42.4,33.9l4.7-22h-7L46.5,0h17l-6.5,30.9h6.2l-5.6,10.4h-9C42.7,41.3,41.1,39.5,42.4,33.9z"/>
<linearGradient id="SVGID_3_" gradientUnits="userSpaceOnUse" x1="63.77" y1="-7.725" x2="104.6279" y2="-7.725" gradientTransform="matrix(1 0 0 -1 0 12.91)">
	<stop  offset="0" style="stop-color:#009DFF"/>
	<stop  offset="0.39" style="stop-color:#008BEA"/>
	<stop  offset="0.88" style="stop-color:#0070CB"/>
	<stop  offset="1" style="stop-color:#0067C2"/>
</linearGradient>
<path class="st7" d="M70.1,0h16.4c14.8,0,20.1,5.4,17.4,17.8c-2.3,11.3-8.8,15.6-23.4,15.6H80l-1.7,7.9H64.5l5.8-27.1h13.9l-1.5,7.1
	h1.9c3.3,0,5.2-1.6,5.9-4.7c0.6-2.9-0.4-4.6-2.8-4.6H63.8L70.1,0z"/>
<linearGradient id="SVGID_4_" gradientUnits="userSpaceOnUse" x1="99.34" y1="-7.755" x2="148.9" y2="-7.755" gradientTransform="matrix(1 0 0 -1 0 12.91)">
	<stop  offset="0" style="stop-color:#009DFF"/>
	<stop  offset="0.39" style="stop-color:#008BEA"/>
	<stop  offset="0.88" style="stop-color:#0070CB"/>
	<stop  offset="1" style="stop-color:#0067C2"/>
</linearGradient>
<path class="st8" d="M113.7,14.1h12.9l-5.8,12.5h8.5L129,11.9h-20.2L116.7,0h24.9l1.3,30.9h6l-5.6,10.4H134c-3,0-4.5-0.5-4.5-4.6V36
	h-13l-2.4,5.3H99.3L113.7,14.1z"/>
<linearGradient id="SVGID_5_" gradientUnits="userSpaceOnUse" x1="147.28" y1="-7.725" x2="213.12" y2="-7.725" gradientTransform="matrix(1 0 0 -1 0 12.91)">
	<stop  offset="0" style="stop-color:#009DFF"/>
	<stop  offset="0.39" style="stop-color:#008BEA"/>
	<stop  offset="0.88" style="stop-color:#0070CB"/>
	<stop  offset="1" style="stop-color:#0067C2"/>
</linearGradient>
<path class="st9" d="M213.1,0l-21.6,41.3h-9.2c-2.6,0-4.1-1.4-4.1-4l-0.2-17.7l-9.7,21.7h-12.3l-2.9-29.4h-5.9L153.6,0h8.9
	c2.6,0,4,1.4,4.1,4l0.2,18l9.9-22h10.9l0.2,22l9.9-22L213.1,0z"/>
<linearGradient id="SVGID_6_" gradientUnits="userSpaceOnUse" x1="255.29" y1="-7.7598" x2="297.32" y2="-7.7598" gradientTransform="matrix(1 0 0 -1 0 12.91)">
	<stop  offset="0" style="stop-color:#009DFF"/>
	<stop  offset="0.39" style="stop-color:#008BEA"/>
	<stop  offset="0.88" style="stop-color:#0070CB"/>
	<stop  offset="1" style="stop-color:#0067C2"/>
</linearGradient>
<path class="st10" d="M261.8,14h13.9l-1.3,6h1.8c3.3,0,5.1-1.1,5.8-4.1c0.6-2.6-0.8-4-3.1-4h-23.5L261.6,0H279
	c14.5,0,18.5,6.6,16.6,15.5c-0.9,4.9-4.1,9.1-8.5,11.3l1,4h9.2l-5.6,10.4H280c-2.1,0.2-4-1.3-4.3-3.5c0-0.1,0-0.1,0-0.2l-1.2-8.3
	h-2.1l-2.6,11.9H256L261.8,14z"/>
<linearGradient id="SVGID_7_" gradientUnits="userSpaceOnUse" x1="298.5" y1="-7.755" x2="330.37" y2="-7.755" gradientTransform="matrix(1 0 0 -1 0 12.91)">
	<stop  offset="0" style="stop-color:#009DFF"/>
	<stop  offset="0.39" style="stop-color:#008BEA"/>
	<stop  offset="0.88" style="stop-color:#0070CB"/>
	<stop  offset="1" style="stop-color:#0067C2"/>
</linearGradient>
<path class="st11" d="M300.1,36.9l5.4-25h-7L304.8,0h17l-6.6,30.9h15.1l-5.3,10.4h-21.4C300.9,41.3,299.5,39.6,300.1,36.9z"/>
<linearGradient id="SVGID_8_" gradientUnits="userSpaceOnUse" x1="329.85" y1="-7.74" x2="371.6672" y2="-7.74" gradientTransform="matrix(1 0 0 -1 0 12.91)">
	<stop  offset="0" style="stop-color:#009DFF"/>
	<stop  offset="0.39" style="stop-color:#008BEA"/>
	<stop  offset="0.88" style="stop-color:#0070CB"/>
	<stop  offset="1" style="stop-color:#0067C2"/>
</linearGradient>
<path class="st12" d="M331.5,36.9l4.8-22.8h13.8l-3.4,16.3h0.4c7,0,9-3.5,10.3-9.8s-0.3-8.6-6.1-8.7h-21.5L336.2,0h16.2
	c15.4,0,21.6,7.3,18.5,21.8c-2.9,13.3-11.2,19.4-26.3,19.4H335C332.2,41.3,330.9,39.6,331.5,36.9z"/>
</svg>
